solid OpenSCAD_Model
  facet normal 0.9945218953682734 0.10452846326765323 0
    outer loop
      vertex 10 0 10
      vertex 9.781476007338057 2.0791169081775935 0
      vertex 9.781476007338057 2.0791169081775935 10
    endloop
  endfacet
  facet normal 0.9945218953682734 0.10452846326765323 0
    outer loop
      vertex 9.781476007338057 2.0791169081775935 0
      vertex 10 0 10
      vertex 10 0 0
    endloop
  endfacet
  facet normal 0.9510565162951534 0.30901699437494784 0
    outer loop
      vertex 9.781476007338057 2.0791169081775935 10
      vertex 9.135454576426008 4.067366430758002 0
      vertex 9.135454576426008 4.067366430758002 10
    endloop
  endfacet
  facet normal 0.9510565162951534 0.30901699437494784 0
    outer loop
      vertex 9.135454576426008 4.067366430758002 0
      vertex 9.781476007338057 2.0791169081775935 10
      vertex 9.781476007338057 2.0791169081775935 0
    endloop
  endfacet
  facet normal 0.8660254037844389 0.49999999999999967 0
    outer loop
      vertex 9.135454576426008 4.067366430758002 10
      vertex 8.090169943749475 5.877852522924732 0
      vertex 8.090169943749475 5.877852522924732 10
    endloop
  endfacet
  facet normal 0.8660254037844389 0.49999999999999967 0
    outer loop
      vertex 8.090169943749475 5.877852522924732 0
      vertex 9.135454576426008 4.067366430758002 10
      vertex 9.135454576426008 4.067366430758002 0
    endloop
  endfacet
  facet normal 0.743144825477394 0.6691306063588583 0
    outer loop
      vertex 8.090169943749475 5.877852522924732 10
      vertex 6.691306063588582 7.431448254773942 0
      vertex 6.691306063588582 7.431448254773942 10
    endloop
  endfacet
  facet normal 0.743144825477394 0.6691306063588583 0
    outer loop
      vertex 6.691306063588582 7.431448254773942 0
      vertex 8.090169943749475 5.877852522924732 10
      vertex 8.090169943749475 5.877852522924732 0
    endloop
  endfacet
  facet normal 0.5877852522924729 0.8090169943749476 0
    outer loop
      vertex 6.691306063588582 7.431448254773942 0
      vertex 5 8.660254037844386 10
      vertex 6.691306063588582 7.431448254773942 10
    endloop
  endfacet
  facet normal 0.5877852522924729 0.8090169943749476 0
    outer loop
      vertex 5 8.660254037844386 10
      vertex 6.691306063588582 7.431448254773942 0
      vertex 5 8.660254037844386 0
    endloop
  endfacet
  facet normal 0.40673664307580015 0.913545457642601 0
    outer loop
      vertex 5 8.660254037844386 0
      vertex 3.090169943749474 9.510565162951535 10
      vertex 5 8.660254037844386 10
    endloop
  endfacet
  facet normal 0.40673664307580015 0.913545457642601 0
    outer loop
      vertex 3.090169943749474 9.510565162951535 10
      vertex 5 8.660254037844386 0
      vertex 3.090169943749474 9.510565162951535 0
    endloop
  endfacet
  facet normal 0.20791169081775984 0.9781476007338056 0
    outer loop
      vertex 3.090169943749474 9.510565162951535 0
      vertex 1.0452846326765348 9.945218953682733 10
      vertex 3.090169943749474 9.510565162951535 10
    endloop
  endfacet
  facet normal 0.20791169081775984 0.9781476007338056 0
    outer loop
      vertex 1.0452846326765348 9.945218953682733 10
      vertex 3.090169943749474 9.510565162951535 0
      vertex 1.0452846326765348 9.945218953682733 0
    endloop
  endfacet
  facet normal 0 1 0
    outer loop
      vertex 1.0452846326765348 9.945218953682733 0
      vertex -1.0452846326765348 9.945218953682733 10
      vertex 1.0452846326765348 9.945218953682733 10
    endloop
  endfacet
  facet normal 0 1 0
    outer loop
      vertex -1.0452846326765348 9.945218953682733 10
      vertex 1.0452846326765348 9.945218953682733 0
      vertex -1.0452846326765348 9.945218953682733 0
    endloop
  endfacet
  facet normal -0.20791169081775984 0.9781476007338056 0
    outer loop
      vertex -1.0452846326765348 9.945218953682733 0
      vertex -3.090169943749474 9.510565162951535 10
      vertex -1.0452846326765348 9.945218953682733 10
    endloop
  endfacet
  facet normal -0.20791169081775984 0.9781476007338056 0
    outer loop
      vertex -3.090169943749474 9.510565162951535 10
      vertex -1.0452846326765348 9.945218953682733 0
      vertex -3.090169943749474 9.510565162951535 0
    endloop
  endfacet
  facet normal -0.40673664307580015 0.913545457642601 0
    outer loop
      vertex -3.090169943749474 9.510565162951535 0
      vertex -5 8.660254037844386 10
      vertex -3.090169943749474 9.510565162951535 10
    endloop
  endfacet
  facet normal -0.40673664307580015 0.913545457642601 0
    outer loop
      vertex -5 8.660254037844386 10
      vertex -3.090169943749474 9.510565162951535 0
      vertex -5 8.660254037844386 0
    endloop
  endfacet
  facet normal -0.5877852522924729 0.8090169943749476 0
    outer loop
      vertex -5 8.660254037844386 0
      vertex -6.691306063588582 7.431448254773942 10
      vertex -5 8.660254037844386 10
    endloop
  endfacet
  facet normal -0.5877852522924729 0.8090169943749476 0
    outer loop
      vertex -6.691306063588582 7.431448254773942 10
      vertex -5 8.660254037844386 0
      vertex -6.691306063588582 7.431448254773942 0
    endloop
  endfacet
  facet normal -0.743144825477394 0.6691306063588583 0
    outer loop
      vertex -8.090169943749475 5.877852522924732 0
      vertex -6.691306063588582 7.431448254773942 10
      vertex -6.691306063588582 7.431448254773942 0
    endloop
  endfacet
  facet normal -0.743144825477394 0.6691306063588583 0
    outer loop
      vertex -6.691306063588582 7.431448254773942 10
      vertex -8.090169943749475 5.877852522924732 0
      vertex -8.090169943749475 5.877852522924732 10
    endloop
  endfacet
  facet normal -0.8660254037844389 0.49999999999999967 0
    outer loop
      vertex -9.135454576426008 4.067366430758002 0
      vertex -8.090169943749475 5.877852522924732 10
      vertex -8.090169943749475 5.877852522924732 0
    endloop
  endfacet
  facet normal -0.8660254037844389 0.49999999999999967 0
    outer loop
      vertex -8.090169943749475 5.877852522924732 10
      vertex -9.135454576426008 4.067366430758002 0
      vertex -9.135454576426008 4.067366430758002 10
    endloop
  endfacet
  facet normal -0.9510565162951534 0.30901699437494784 0
    outer loop
      vertex -9.781476007338057 2.0791169081775935 0
      vertex -9.135454576426008 4.067366430758002 10
      vertex -9.135454576426008 4.067366430758002 0
    endloop
  endfacet
  facet normal -0.9510565162951534 0.30901699437494784 0
    outer loop
      vertex -9.135454576426008 4.067366430758002 10
      vertex -9.781476007338057 2.0791169081775935 0
      vertex -9.781476007338057 2.0791169081775935 10
    endloop
  endfacet
  facet normal -0.9945218953682734 0.10452846326765323 0
    outer loop
      vertex -10 0 0
      vertex -9.781476007338057 2.0791169081775935 10
      vertex -9.781476007338057 2.0791169081775935 0
    endloop
  endfacet
  facet normal -0.9945218953682734 0.10452846326765323 0
    outer loop
      vertex -9.781476007338057 2.0791169081775935 10
      vertex -10 0 0
      vertex -10 0 10
    endloop
  endfacet
  facet normal -0.9945218953682734 -0.10452846326765323 0
    outer loop
      vertex -9.781476007338057 -2.0791169081775935 0
      vertex -10 0 10
      vertex -10 0 0
    endloop
  endfacet
  facet normal -0.9945218953682734 -0.10452846326765323 0
    outer loop
      vertex -10 0 10
      vertex -9.781476007338057 -2.0791169081775935 0
      vertex -9.781476007338057 -2.0791169081775935 10
    endloop
  endfacet
  facet normal -0.9510565162951534 -0.30901699437494784 0
    outer loop
      vertex -9.135454576426008 -4.067366430758002 0
      vertex -9.781476007338057 -2.0791169081775935 10
      vertex -9.781476007338057 -2.0791169081775935 0
    endloop
  endfacet
  facet normal -0.9510565162951534 -0.30901699437494784 0
    outer loop
      vertex -9.781476007338057 -2.0791169081775935 10
      vertex -9.135454576426008 -4.067366430758002 0
      vertex -9.135454576426008 -4.067366430758002 10
    endloop
  endfacet
  facet normal -0.8660254037844389 -0.49999999999999967 0
    outer loop
      vertex -8.090169943749475 -5.877852522924732 0
      vertex -9.135454576426008 -4.067366430758002 10
      vertex -9.135454576426008 -4.067366430758002 0
    endloop
  endfacet
  facet normal -0.8660254037844389 -0.49999999999999967 0
    outer loop
      vertex -9.135454576426008 -4.067366430758002 10
      vertex -8.090169943749475 -5.877852522924732 0
      vertex -8.090169943749475 -5.877852522924732 10
    endloop
  endfacet
  facet normal -0.743144825477394 -0.6691306063588583 0
    outer loop
      vertex -6.691306063588582 -7.431448254773942 0
      vertex -8.090169943749475 -5.877852522924732 10
      vertex -8.090169943749475 -5.877852522924732 0
    endloop
  endfacet
  facet normal -0.743144825477394 -0.6691306063588583 0
    outer loop
      vertex -8.090169943749475 -5.877852522924732 10
      vertex -6.691306063588582 -7.431448254773942 0
      vertex -6.691306063588582 -7.431448254773942 10
    endloop
  endfacet
  facet normal -0.5877852522924729 -0.8090169943749476 0
    outer loop
      vertex -6.691306063588582 -7.431448254773942 0
      vertex -5 -8.660254037844386 10
      vertex -6.691306063588582 -7.431448254773942 10
    endloop
  endfacet
  facet normal -0.5877852522924729 -0.8090169943749476 0
    outer loop
      vertex -5 -8.660254037844386 10
      vertex -6.691306063588582 -7.431448254773942 0
      vertex -5 -8.660254037844386 0
    endloop
  endfacet
  facet normal -0.40673664307580015 -0.913545457642601 0
    outer loop
      vertex -5 -8.660254037844386 0
      vertex -3.090169943749474 -9.510565162951535 10
      vertex -5 -8.660254037844386 10
    endloop
  endfacet
  facet normal -0.40673664307580015 -0.913545457642601 0
    outer loop
      vertex -3.090169943749474 -9.510565162951535 10
      vertex -5 -8.660254037844386 0
      vertex -3.090169943749474 -9.510565162951535 0
    endloop
  endfacet
  facet normal -0.20791169081775984 -0.9781476007338056 0
    outer loop
      vertex -3.090169943749474 -9.510565162951535 0
      vertex -1.0452846326765348 -9.945218953682733 10
      vertex -3.090169943749474 -9.510565162951535 10
    endloop
  endfacet
  facet normal -0.20791169081775984 -0.9781476007338056 0
    outer loop
      vertex -1.0452846326765348 -9.945218953682733 10
      vertex -3.090169943749474 -9.510565162951535 0
      vertex -1.0452846326765348 -9.945218953682733 0
    endloop
  endfacet
  facet normal 0 -1 0
    outer loop
      vertex -1.0452846326765348 -9.945218953682733 0
      vertex 1.0452846326765348 -9.945218953682733 10
      vertex -1.0452846326765348 -9.945218953682733 10
    endloop
  endfacet
  facet normal 0 -1 0
    outer loop
      vertex 1.0452846326765348 -9.945218953682733 10
      vertex -1.0452846326765348 -9.945218953682733 0
      vertex 1.0452846326765348 -9.945218953682733 0
    endloop
  endfacet
  facet normal 0.20791169081775984 -0.9781476007338056 0
    outer loop
      vertex 1.0452846326765348 -9.945218953682733 0
      vertex 3.090169943749474 -9.510565162951535 10
      vertex 1.0452846326765348 -9.945218953682733 10
    endloop
  endfacet
  facet normal 0.20791169081775984 -0.9781476007338056 0
    outer loop
      vertex 3.090169943749474 -9.510565162951535 10
      vertex 1.0452846326765348 -9.945218953682733 0
      vertex 3.090169943749474 -9.510565162951535 0
    endloop
  endfacet
  facet normal 0.40673664307580015 -0.913545457642601 0
    outer loop
      vertex 3.090169943749474 -9.510565162951535 0
      vertex 5 -8.660254037844386 10
      vertex 3.090169943749474 -9.510565162951535 10
    endloop
  endfacet
  facet normal 0.40673664307580015 -0.913545457642601 0
    outer loop
      vertex 5 -8.660254037844386 10
      vertex 3.090169943749474 -9.510565162951535 0
      vertex 5 -8.660254037844386 0
    endloop
  endfacet
  facet normal 0.5877852522924729 -0.8090169943749476 0
    outer loop
      vertex 5 -8.660254037844386 0
      vertex 6.691306063588582 -7.431448254773942 10
      vertex 5 -8.660254037844386 10
    endloop
  endfacet
  facet normal 0.5877852522924729 -0.8090169943749476 0
    outer loop
      vertex 6.691306063588582 -7.431448254773942 10
      vertex 5 -8.660254037844386 0
      vertex 6.691306063588582 -7.431448254773942 0
    endloop
  endfacet
  facet normal 0.743144825477394 -0.6691306063588583 0
    outer loop
      vertex 6.691306063588582 -7.431448254773942 10
      vertex 8.090169943749475 -5.877852522924732 0
      vertex 8.090169943749475 -5.877852522924732 10
    endloop
  endfacet
  facet normal 0.743144825477394 -0.6691306063588583 0
    outer loop
      vertex 8.090169943749475 -5.877852522924732 0
      vertex 6.691306063588582 -7.431448254773942 10
      vertex 6.691306063588582 -7.431448254773942 0
    endloop
  endfacet
  facet normal 0.8660254037844389 -0.49999999999999967 0
    outer loop
      vertex 8.090169943749475 -5.877852522924732 10
      vertex 9.135454576426008 -4.067366430758002 0
      vertex 9.135454576426008 -4.067366430758002 10
    endloop
  endfacet
  facet normal 0.8660254037844389 -0.49999999999999967 0
    outer loop
      vertex 9.135454576426008 -4.067366430758002 0
      vertex 8.090169943749475 -5.877852522924732 10
      vertex 8.090169943749475 -5.877852522924732 0
    endloop
  endfacet
  facet normal 0.9510565162951534 -0.30901699437494784 0
    outer loop
      vertex 9.135454576426008 -4.067366430758002 10
      vertex 9.781476007338057 -2.0791169081775935 0
      vertex 9.781476007338057 -2.0791169081775935 10
    endloop
  endfacet
  facet normal 0.9510565162951534 -0.30901699437494784 0
    outer loop
      vertex 9.781476007338057 -2.0791169081775935 0
      vertex 9.135454576426008 -4.067366430758002 10
      vertex 9.135454576426008 -4.067366430758002 0
    endloop
  endfacet
  facet normal 0.9945218953682734 -0.10452846326765323 0
    outer loop
      vertex 9.781476007338057 -2.0791169081775935 10
      vertex 10 0 0
      vertex 10 0 10
    endloop
  endfacet
  facet normal 0.9945218953682734 -0.10452846326765323 0
    outer loop
      vertex 10 0 0
      vertex 9.781476007338057 -2.0791169081775935 10
      vertex 9.781476007338057 -2.0791169081775935 0
    endloop
  endfacet
  facet normal 0 0 -1
    outer loop
      vertex 9.781476007338057 -2.0791169081775935 0
      vertex 9.781476007338057 2.0791169081775935 0
      vertex 10 0 0
    endloop
  endfacet
  facet normal 0 0 -1
    outer loop
      vertex 9.135454576426008 -4.067366430758002 0
      vertex 9.781476007338057 2.0791169081775935 0
      vertex 9.781476007338057 -2.0791169081775935 0
    endloop
  endfacet
  facet normal 0 0 -1
    outer loop
      vertex 9.135454576426008 -4.067366430758002 0
      vertex 9.135454576426008 4.067366430758002 0
      vertex 9.781476007338057 2.0791169081775935 0
    endloop
  endfacet
  facet normal 0 0 -1
    outer loop
      vertex 8.090169943749475 -5.877852522924732 0
      vertex 9.135454576426008 4.067366430758002 0
      vertex 9.135454576426008 -4.067366430758002 0
    endloop
  endfacet
  facet normal 0 0 -1
    outer loop
      vertex 8.090169943749475 -5.877852522924732 0
      vertex 8.090169943749475 5.877852522924732 0
      vertex 9.135454576426008 4.067366430758002 0
    endloop
  endfacet
  facet normal 0 0 -1
    outer loop
      vertex 6.691306063588582 -7.431448254773942 0
      vertex 8.090169943749475 5.877852522924732 0
      vertex 8.090169943749475 -5.877852522924732 0
    endloop
  endfacet
  facet normal 0 0 -1
    outer loop
      vertex 6.691306063588582 -7.431448254773942 0
      vertex 6.691306063588582 7.431448254773942 0
      vertex 8.090169943749475 5.877852522924732 0
    endloop
  endfacet
  facet normal 0 0 -1
    outer loop
      vertex 5 -8.660254037844386 0
      vertex 6.691306063588582 7.431448254773942 0
      vertex 6.691306063588582 -7.431448254773942 0
    endloop
  endfacet
  facet normal 0 0 -1
    outer loop
      vertex 5 -8.660254037844386 0
      vertex 5 8.660254037844386 0
      vertex 6.691306063588582 7.431448254773942 0
    endloop
  endfacet
  facet normal 0 0 -1
    outer loop
      vertex 3.090169943749474 -9.510565162951535 0
      vertex 5 8.660254037844386 0
      vertex 5 -8.660254037844386 0
    endloop
  endfacet
  facet normal 0 0 -1
    outer loop
      vertex 3.090169943749474 -9.510565162951535 0
      vertex 3.090169943749474 9.510565162951535 0
      vertex 5 8.660254037844386 0
    endloop
  endfacet
  facet normal 0 0 -1
    outer loop
      vertex 1.0452846326765348 -9.945218953682733 0
      vertex 3.090169943749474 9.510565162951535 0
      vertex 3.090169943749474 -9.510565162951535 0
    endloop
  endfacet
  facet normal 0 0 -1
    outer loop
      vertex 1.0452846326765348 -9.945218953682733 0
      vertex 1.0452846326765348 9.945218953682733 0
      vertex 3.090169943749474 9.510565162951535 0
    endloop
  endfacet
  facet normal 0 0 -1
    outer loop
      vertex -1.0452846326765348 -9.945218953682733 0
      vertex 1.0452846326765348 9.945218953682733 0
      vertex 1.0452846326765348 -9.945218953682733 0
    endloop
  endfacet
  facet normal 0 0 -1
    outer loop
      vertex -1.0452846326765348 -9.945218953682733 0
      vertex -1.0452846326765348 9.945218953682733 0
      vertex 1.0452846326765348 9.945218953682733 0
    endloop
  endfacet
  facet normal 0 0 -1
    outer loop
      vertex -3.090169943749474 -9.510565162951535 0
      vertex -1.0452846326765348 9.945218953682733 0
      vertex -1.0452846326765348 -9.945218953682733 0
    endloop
  endfacet
  facet normal 0 0 -1
    outer loop
      vertex -3.090169943749474 -9.510565162951535 0
      vertex -3.090169943749474 9.510565162951535 0
      vertex -1.0452846326765348 9.945218953682733 0
    endloop
  endfacet
  facet normal 0 0 -1
    outer loop
      vertex -5 -8.660254037844386 0
      vertex -3.090169943749474 9.510565162951535 0
      vertex -3.090169943749474 -9.510565162951535 0
    endloop
  endfacet
  facet normal 0 0 -1
    outer loop
      vertex -5 -8.660254037844386 0
      vertex -5 8.660254037844386 0
      vertex -3.090169943749474 9.510565162951535 0
    endloop
  endfacet
  facet normal 0 0 -1
    outer loop
      vertex -6.691306063588582 -7.431448254773942 0
      vertex -5 8.660254037844386 0
      vertex -5 -8.660254037844386 0
    endloop
  endfacet
  facet normal 0 0 -1
    outer loop
      vertex -6.691306063588582 -7.431448254773942 0
      vertex -6.691306063588582 7.431448254773942 0
      vertex -5 8.660254037844386 0
    endloop
  endfacet
  facet normal 0 0 -1
    outer loop
      vertex -8.090169943749475 -5.877852522924732 0
      vertex -6.691306063588582 7.431448254773942 0
      vertex -6.691306063588582 -7.431448254773942 0
    endloop
  endfacet
  facet normal 0 0 -1
    outer loop
      vertex -8.090169943749475 -5.877852522924732 0
      vertex -8.090169943749475 5.877852522924732 0
      vertex -6.691306063588582 7.431448254773942 0
    endloop
  endfacet
  facet normal 0 0 -1
    outer loop
      vertex -9.135454576426008 -4.067366430758002 0
      vertex -8.090169943749475 5.877852522924732 0
      vertex -8.090169943749475 -5.877852522924732 0
    endloop
  endfacet
  facet normal 0 0 -1
    outer loop
      vertex -9.135454576426008 -4.067366430758002 0
      vertex -9.135454576426008 4.067366430758002 0
      vertex -8.090169943749475 5.877852522924732 0
    endloop
  endfacet
  facet normal 0 0 -1
    outer loop
      vertex -9.781476007338057 -2.0791169081775935 0
      vertex -9.135454576426008 4.067366430758002 0
      vertex -9.135454576426008 -4.067366430758002 0
    endloop
  endfacet
  facet normal 0 0 -1
    outer loop
      vertex -9.781476007338057 -2.0791169081775935 0
      vertex -9.781476007338057 2.0791169081775935 0
      vertex -9.135454576426008 4.067366430758002 0
    endloop
  endfacet
  facet normal 0 0 -1
    outer loop
      vertex -9.781476007338057 2.0791169081775935 0
      vertex -9.781476007338057 -2.0791169081775935 0
      vertex -10 0 0
    endloop
  endfacet
  facet normal 0 0 1
    outer loop
      vertex 9.781476007338057 2.0791169081775935 10
      vertex 9.781476007338057 -2.0791169081775935 10
      vertex 10 0 10
    endloop
  endfacet
  facet normal 0 0 1
    outer loop
      vertex 9.135454576426008 4.067366430758002 10
      vertex 9.781476007338057 -2.0791169081775935 10
      vertex 9.781476007338057 2.0791169081775935 10
    endloop
  endfacet
  facet normal 0 0 1
    outer loop
      vertex 9.135454576426008 4.067366430758002 10
      vertex 9.135454576426008 -4.067366430758002 10
      vertex 9.781476007338057 -2.0791169081775935 10
    endloop
  endfacet
  facet normal 0 0 1
    outer loop
      vertex 8.090169943749475 5.877852522924732 10
      vertex 9.135454576426008 -4.067366430758002 10
      vertex 9.135454576426008 4.067366430758002 10
    endloop
  endfacet
  facet normal 0 0 1
    outer loop
      vertex 8.090169943749475 5.877852522924732 10
      vertex 8.090169943749475 -5.877852522924732 10
      vertex 9.135454576426008 -4.067366430758002 10
    endloop
  endfacet
  facet normal 0 0 1
    outer loop
      vertex 6.691306063588582 7.431448254773942 10
      vertex 8.090169943749475 -5.877852522924732 10
      vertex 8.090169943749475 5.877852522924732 10
    endloop
  endfacet
  facet normal 0 0 1
    outer loop
      vertex 6.691306063588582 7.431448254773942 10
      vertex 6.691306063588582 -7.431448254773942 10
      vertex 8.090169943749475 -5.877852522924732 10
    endloop
  endfacet
  facet normal 0 0 1
    outer loop
      vertex 5 8.660254037844386 10
      vertex 6.691306063588582 -7.431448254773942 10
      vertex 6.691306063588582 7.431448254773942 10
    endloop
  endfacet
  facet normal 0 0 1
    outer loop
      vertex 5 8.660254037844386 10
      vertex 5 -8.660254037844386 10
      vertex 6.691306063588582 -7.431448254773942 10
    endloop
  endfacet
  facet normal 0 0 1
    outer loop
      vertex 3.090169943749474 9.510565162951535 10
      vertex 5 -8.660254037844386 10
      vertex 5 8.660254037844386 10
    endloop
  endfacet
  facet normal 0 0 1
    outer loop
      vertex 3.090169943749474 9.510565162951535 10
      vertex 3.090169943749474 -9.510565162951535 10
      vertex 5 -8.660254037844386 10
    endloop
  endfacet
  facet normal 0 0 1
    outer loop
      vertex 1.0452846326765348 9.945218953682733 10
      vertex 3.090169943749474 -9.510565162951535 10
      vertex 3.090169943749474 9.510565162951535 10
    endloop
  endfacet
  facet normal 0 0 1
    outer loop
      vertex 1.0452846326765348 9.945218953682733 10
      vertex 1.0452846326765348 -9.945218953682733 10
      vertex 3.090169943749474 -9.510565162951535 10
    endloop
  endfacet
  facet normal 0 0 1
    outer loop
      vertex -1.0452846326765348 9.945218953682733 10
      vertex 1.0452846326765348 -9.945218953682733 10
      vertex 1.0452846326765348 9.945218953682733 10
    endloop
  endfacet
  facet normal 0 0 1
    outer loop
      vertex -1.0452846326765348 9.945218953682733 10
      vertex -1.0452846326765348 -9.945218953682733 10
      vertex 1.0452846326765348 -9.945218953682733 10
    endloop
  endfacet
  facet normal 0 0 1
    outer loop
      vertex -3.090169943749474 9.510565162951535 10
      vertex -1.0452846326765348 -9.945218953682733 10
      vertex -1.0452846326765348 9.945218953682733 10
    endloop
  endfacet
  facet normal 0 0 1
    outer loop
      vertex -3.090169943749474 9.510565162951535 10
      vertex -3.090169943749474 -9.510565162951535 10
      vertex -1.0452846326765348 -9.945218953682733 10
    endloop
  endfacet
  facet normal 0 0 1
    outer loop
      vertex -5 8.660254037844386 10
      vertex -3.090169943749474 -9.510565162951535 10
      vertex -3.090169943749474 9.510565162951535 10
    endloop
  endfacet
  facet normal 0 0 1
    outer loop
      vertex -5 8.660254037844386 10
      vertex -5 -8.660254037844386 10
      vertex -3.090169943749474 -9.510565162951535 10
    endloop
  endfacet
  facet normal 0 0 1
    outer loop
      vertex -6.691306063588582 7.431448254773942 10
      vertex -5 -8.660254037844386 10
      vertex -5 8.660254037844386 10
    endloop
  endfacet
  facet normal 0 0 1
    outer loop
      vertex -6.691306063588582 7.431448254773942 10
      vertex -6.691306063588582 -7.431448254773942 10
      vertex -5 -8.660254037844386 10
    endloop
  endfacet
  facet normal 0 0 1
    outer loop
      vertex -8.090169943749475 5.877852522924732 10
      vertex -6.691306063588582 -7.431448254773942 10
      vertex -6.691306063588582 7.431448254773942 10
    endloop
  endfacet
  facet normal 0 0 1
    outer loop
      vertex -8.090169943749475 5.877852522924732 10
      vertex -8.090169943749475 -5.877852522924732 10
      vertex -6.691306063588582 -7.431448254773942 10
    endloop
  endfacet
  facet normal 0 0 1
    outer loop
      vertex -9.135454576426008 4.067366430758002 10
      vertex -8.090169943749475 -5.877852522924732 10
      vertex -8.090169943749475 5.877852522924732 10
    endloop
  endfacet
  facet normal 0 0 1
    outer loop
      vertex -9.135454576426008 4.067366430758002 10
      vertex -9.135454576426008 -4.067366430758002 10
      vertex -8.090169943749475 -5.877852522924732 10
    endloop
  endfacet
  facet normal 0 0 1
    outer loop
      vertex -9.781476007338057 2.0791169081775935 10
      vertex -9.135454576426008 -4.067366430758002 10
      vertex -9.135454576426008 4.067366430758002 10
    endloop
  endfacet
  facet normal 0 0 1
    outer loop
      vertex -9.781476007338057 2.0791169081775935 10
      vertex -9.781476007338057 -2.0791169081775935 10
      vertex -9.135454576426008 -4.067366430758002 10
    endloop
  endfacet
  facet normal 0 0 1
    outer loop
      vertex -9.781476007338057 -2.0791169081775935 10
      vertex -9.781476007338057 2.0791169081775935 10
      vertex -10 0 10
    endloop
  endfacet
endsolid OpenSCAD_Model
